<?xml version="1.0" standalone="no"?>
<!DOCTYPE svg PUBLIC "-//W3C//DTD SVG 20010904//EN"
 "http://www.w3.org/TR/2001/REC-SVG-20010904/DTD/svg10.dtd">
<svg version="1.0" xmlns="http://www.w3.org/2000/svg"
 width="700.000000pt" height="700.000000pt" viewBox="0 0 700.000000 700.000000"
 preserveAspectRatio="xMidYMid meet">
<metadata>
Created by potrace 1.14, written by Peter Selinger 2001-2017
</metadata>
<g transform="translate(0.000000,700.000000) scale(0.100000,-0.100000)"
fill="#000000" stroke="none">
<path d="M4383 6983 c-18 -10 -65 -44 -105 -75 -158 -123 -546 -424 -572 -443
-15 -11 -37 -28 -49 -39 -12 -10 -46 -37 -75 -59 -29 -22 -60 -53 -68 -68 -19
-38 -18 -99 3 -129 16 -24 416 -542 438 -567 14 -17 22 -28 75 -98 25 -33 50
-66 57 -73 7 -7 26 -32 43 -56 57 -78 125 -101 195 -63 47 26 216 160 238 189
12 16 20 43 20 71 2 50 -3 58 -126 217 -42 55 -74 100 -69 100 28 0 306 -86
412 -127 166 -64 423 -205 530 -290 8 -6 49 -39 91 -71 97 -77 257 -235 334
-332 33 -41 62 -77 66 -80 9 -9 134 -202 170 -265 40 -70 83 -97 141 -91 41 4
270 116 305 148 24 22 38 68 34 108 -4 42 -129 253 -224 380 -234 311 -500
552 -852 771 -58 37 -250 133 -325 163 -36 15 -74 31 -85 36 -22 10 -189 69
-214 76 -9 2 -81 20 -161 40 -80 19 -147 38 -150 40 -2 3 2 9 10 14 8 5 26 18
40 29 155 123 191 154 199 169 17 32 19 76 5 110 -17 42 -168 238 -200 258
-37 25 -94 28 -131 7z"/>
<path d="M2129 6266 c-2 -2 -29 -7 -59 -10 -88 -11 -241 -49 -305 -76 -311
-132 -529 -301 -716 -553 -145 -194 -278 -496 -315 -716 -11 -61 -11 -61 -79
-61 -74 0 -102 -11 -130 -48 -18 -25 -19 -44 -20 -266 0 -311 2 -316 144 -326
l74 -5 18 -86 c66 -322 232 -631 464 -865 141 -143 238 -216 389 -294 164 -85
277 -123 454 -154 85 -15 340 -19 399 -6 21 5 57 11 80 14 87 11 241 61 336
108 61 30 80 57 79 111 -1 28 -155 368 -197 434 -38 61 -81 66 -187 24 -185
-73 -399 -74 -584 -2 -250 97 -463 332 -564 623 -15 46 -26 86 -24 90 2 3 222
7 489 7 442 1 487 2 511 18 47 30 51 59 50 313 -1 259 -5 275 -65 300 -20 8
-170 12 -507 13 -468 2 -479 2 -476 21 9 50 68 191 110 265 195 340 526 523
866 479 70 -9 116 -21 204 -54 85 -33 128 -30 167 10 17 17 202 410 205 436 9
64 -19 107 -88 136 -198 82 -356 116 -563 120 -86 2 -158 1 -160 0z"/>
<path d="M5220 3928 c-25 -13 -42 -30 -49 -50 -6 -18 -11 -109 -11 -212 l0
-181 -92 -23 c-163 -40 -347 -140 -453 -246 -158 -159 -236 -338 -238 -551 -4
-343 117 -579 388 -760 143 -95 255 -141 700 -286 274 -89 366 -148 380 -243
18 -121 -40 -184 -213 -232 -80 -22 -298 -27 -383 -9 -142 30 -260 87 -373
179 -70 56 -81 62 -118 60 -43 -3 -46 -5 -168 -120 -248 -234 -240 -225 -240
-278 0 -46 3 -52 58 -106 82 -82 204 -169 321 -229 101 -52 298 -122 378 -136
24 -4 45 -10 48 -14 2 -4 5 -90 5 -190 2 -178 2 -182 26 -211 14 -16 40 -33
57 -38 18 -4 134 -8 258 -7 316 1 303 -11 304 274 0 160 3 196 15 203 8 4 54
22 102 39 348 123 568 414 570 754 0 142 -9 209 -46 315 -94 269 -328 456
-736 589 -69 22 -195 63 -281 91 -318 103 -409 174 -409 319 0 62 12 95 47
127 25 24 93 64 118 70 6 2 35 10 65 18 30 8 75 17 100 20 55 8 216 8 250 1
13 -2 42 -7 64 -11 68 -10 198 -54 266 -91 36 -19 80 -35 98 -35 57 0 67 10
174 177 25 39 71 110 103 160 89 136 81 183 -42 251 -101 57 -206 100 -333
136 -63 18 -117 34 -119 35 -3 2 -5 88 -6 191 0 161 -3 193 -18 215 -31 48
-46 51 -295 52 -211 1 -238 0 -272 -17z"/>
<path d="M1090 2307 c-142 -70 -162 -83 -178 -114 -27 -51 -24 -87 14 -159 91
-173 270 -415 428 -582 196 -204 416 -376 676 -525 42 -24 206 -106 271 -135
85 -39 313 -113 463 -151 l149 -37 -54 -43 c-30 -23 -61 -47 -69 -54 -8 -7
-33 -26 -55 -42 -122 -90 -122 -150 -4 -300 39 -50 74 -94 77 -100 33 -48 112
-76 162 -57 20 8 186 132 280 209 8 7 132 103 275 213 143 110 277 216 297
236 43 40 56 86 39 136 -6 18 -89 133 -184 255 -94 122 -215 276 -267 344
-187 240 -205 263 -230 281 -31 22 -83 30 -117 17 -29 -11 -179 -124 -235
-177 -41 -39 -57 -97 -40 -142 5 -14 53 -81 106 -149 53 -68 96 -124 96 -126
0 -4 -264 75 -340 102 -242 85 -471 210 -680 371 -212 164 -474 469 -584 683
-10 19 -24 42 -30 51 -19 27 -80 58 -111 58 -16 0 -86 -28 -155 -63z"/>
</g>
</svg>
